# xmcd CD database file
#
# Track frame offsets:
#	150
#	21707
#	42757
#	61342
#	78019
#	98791
#	122146
#	139581
#	158961
#	178868
#	196343
#	218856
#	235766
#	258203
#	280538
#	300351
#
# Disc length: 4421 seconds
#
# Revision: 0
# Processed by: cddbd v1.4PL0 Copyright (c) Steve Scherf et al.
# Submitted via: CDex 1.51
#
DISCID=d3114310
DTITLE=Инструментальный New Age - XX век
DYEAR=1900
DGENRE=New Age
TTITLE0=Mars Lasar - Lords of Truth
TTITLE1=Graig Chaquico - Sweet Talk
TTITLE2=Chris Spheeris - Viva
TTITLE3=Cusco - Saturn
TTITLE4=Ystein Sevag - Trust Yuor Wings 
TTITLE5=Neal Schon - Zanzibar
TTITLE6=Soul Ballet - Am i Close Enought
TTITLE7=Steve Howe and Paul Stin - Telepathy
TTITLE8=Tommy Emmanuel - Villa de Martin
TTITLE9=Rick Wakemar The Dore
TTITLE10=Andreas Vollenweider - Night Fire Danee
TTITLE11=Ystein Sevaga and Lakki Patey - Painful Love
TTITLE12=Yulara - Namah Shivaya
TTITLE13=3rd Force - Here Comes the Night
TTITLE14=Keiko Matsui - Bridge Over the Stars
TTITLE15=Zeus Fa Ber - The Islands
EXTD=
EXTT0=
EXTT1=
EXTT2=
EXTT3=
EXTT4=
EXTT5=
EXTT6=
EXTT7=
EXTT8=
EXTT9=
EXTT10=
EXTT11=
EXTT12=
EXTT13=
EXTT14=
EXTT15=
PLAYORDER=
